<?xml version="1.0" encoding="utf-8"?>
<!-- Generator: Adobe Illustrator 22.0.0, SVG Export Plug-In . SVG Version: 6.00 Build 0)  -->
<svg version="1.1" id="Layer_1" xmlns="http://www.w3.org/2000/svg" xmlns:xlink="http://www.w3.org/1999/xlink" x="0px" y="0px"
	 viewBox="0 0 48 48" style="enable-background:new 0 0 48 48;" xml:space="preserve">
<style type="text/css">
	.st0{fill:#007AA6;}
</style>
<title>UX/UI</title>
<path class="st0" d="M39.9,44.1l4.2-4.2l1.3,5.5L39.9,44.1L39.9,44.1z M25.6,30.3L24,28.7L19.3,24l-1.6-1.6l-9.8-9.9l4.8-4.8
	l9.8,9.8l1.6,1.6l4.8,4.8l1.6,1.6L42.8,38l-4.8,4.8L25.6,30.3z M9.9,42.9l-3.8,1.6l-2.6-2.6l1.6-3.8l12.6-12.6l4.8,4.8L9.9,42.9z
	 M3,7.7C2.6,7.3,2.6,6.6,3,6.2L6.2,3c0.4-0.4,1.1-0.4,1.6,0c0,0,0,0,0,0L11,6.2l-4.8,4.8L3,7.7L3,7.7z M37.4,5.8l4.8,4.8L30.4,22.4
	l-4.8-4.8L37.4,5.8L37.4,5.8z M43.4,2.3C43.4,2.2,43.4,2.2,43.4,2.3l2.4,2.4c0,0,0,0,0,0l-3.2,3.2l-2.4-2.4L43.4,2.3L43.4,2.3z
	 M46,38L32,24l9.4-9.4l0.9,0.9c0.4,0.4,0.4,1.2,0,1.6l-4.4,4.4c-0.4,0.5-0.4,1.2,0.1,1.6c0.4,0.4,1.1,0.4,1.5,0l4.4-4.4
	c1.3-1.3,1.3-3.5,0-4.8c0,0,0,0,0,0L42.9,13l0.8-0.8l1.6-1.6l-1.2-1.2l3.2-3.2c0.9-0.9,0.9-2.3,0-3.2c0,0,0,0,0,0L45,0.7
	c-0.9-0.9-2.3-0.9-3.2,0c0,0,0,0,0,0l-3.2,3.2l-1.2-1.2l-1.6,1.6h0v0L24,16L9.4,1.4C8.1,0.1,6,0.1,4.6,1.4c0,0,0,0,0,0L1.5,4.6
	C0.1,5.9,0.1,8,1.4,9.3l3.2,3.2l0.3,0.3l1.3,1.3l9.8,9.9L3.2,36.9l-2.4,5.6L2.4,44L0,46.4L1.6,48L4,45.6l1.6,1.6l5.6-2.4L24,31.9
	l12.4,12.4l1.6,1.6l8.2,1.9c1.2,0.3,2-0.5,1.7-1.7L46,38L46,38z"/>
</svg>
