<?xml version="1.0" encoding="utf-8"?>
<!-- Generator: Adobe Illustrator 22.0.0, SVG Export Plug-In . SVG Version: 6.00 Build 0)  -->
<svg version="1.1" id="Layer_1" xmlns="http://www.w3.org/2000/svg" xmlns:xlink="http://www.w3.org/1999/xlink" x="0px" y="0px"
	 viewBox="0 0 50 48" style="enable-background:new 0 0 50 48;" xml:space="preserve">
<style type="text/css">
	.st0{fill:#007AA6;}
</style>
<title>FRONT END</title>
<path class="st0" d="M47.6,44.4c0,0.7-0.5,1.2-1.2,1.2H3.6c-0.7,0-1.2-0.5-1.2-1.2c0,0,0,0,0,0V12h45.2V44.4z M3.6,2.4h42.8
	c0.7,0,1.2,0.5,1.2,1.2l0,0v6H2.4v-6l0,0C2.4,2.9,2.9,2.4,3.6,2.4z M50,3.6L50,3.6l0,40.8c0,2-1.6,3.6-3.6,3.6H3.6
	c-2,0-3.6-1.6-3.6-3.6V3.6l0,0c0-1.5,1-2.9,2.4-3.4C2.8,0.1,3.2,0,3.6,0h42.8C48.4,0,50,1.6,50,3.6L50,3.6z M6,7.2
	c0.7,0,1.2-0.5,1.2-1.2c0-0.7-0.5-1.2-1.2-1.2C5.3,4.8,4.8,5.3,4.8,6C4.8,6.7,5.3,7.2,6,7.2z M9.5,7.2c0.7,0,1.2-0.5,1.2-1.2
	c0-0.7-0.5-1.2-1.2-1.2C8.9,4.8,8.3,5.3,8.3,6C8.3,6.7,8.9,7.2,9.5,7.2z M13.1,7.2c0.7,0,1.2-0.5,1.2-1.2c0-0.7-0.5-1.2-1.2-1.2
	c-0.7,0-1.2,0.5-1.2,1.2C11.9,6.7,12.4,7.2,13.1,7.2z M35.4,20.8c-0.1-0.1-0.1-0.1-0.2-0.1c-0.5-0.3-1.1-0.3-1.5,0.1
	c-0.5,0.5-0.5,1.2,0,1.7l1.5,1.5l3.5,3.6l-3.5,3.6l-1.5,1.5c-0.5,0.5-0.5,1.2,0,1.7c0.4,0.4,1,0.4,1.5,0.1c0.1,0,0.1-0.1,0.2-0.1
	l5.9-5.9c0.5-0.5,0.5-1.2,0-1.7C41.3,26.7,35.4,20.8,35.4,20.8z M28.5,16.9c-0.4-0.1-0.8-0.1-1.1,0.1c-0.2,0.1-0.4,0.3-0.4,0.5
	L26.8,18l-4,10.3l-3.6,9.3c-0.2,0.6,0.1,1.3,0.7,1.6c0.6,0.2,1.3-0.1,1.5-0.7c0,0,0,0,0,0l1.4-3.6L27.4,23l1.8-4.6
	c0.1-0.1,0.1-0.3,0.1-0.4C29.2,17.5,29,17.1,28.5,16.9L28.5,16.9z M16.5,22.4c0.5-0.5,0.5-1.2,0-1.7c-0.5-0.5-1.2-0.5-1.7,0
	c0,0,0,0,0,0l-1.7,1.7l-4.2,4.2c-0.5,0.5-0.5,1.2,0,1.7l4.2,4.2l1.7,1.7c0.5,0.5,1.2,0.5,1.7,0c0,0,0,0,0,0c0.5-0.5,0.5-1.2,0-1.7
	l-3.4-3.4l-1.7-1.7l1.7-1.7L16.5,22.4L16.5,22.4z"/>
</svg>
